<?xml version="1.0" encoding="utf-8"?>
<!-- Generator: Adobe Illustrator 22.1.0, SVG Export Plug-In . SVG Version: 6.00 Build 0)  -->
<svg version="1.1" id="レイヤー_1" xmlns="http://www.w3.org/2000/svg" xmlns:xlink="http://www.w3.org/1999/xlink" x="0px"
	 y="0px" viewBox="0 0 265.6 175.8" style="enable-background:new 0 0 265.6 175.8;" xml:space="preserve">
<style type="text/css">
	.st0{fill:#FF8F00;}
	.st1{fill:#231815;}
	.st2{fill:#898989;}
	.st3{fill:#FDCE2B;}
</style>
<g>
	<path class="st0" d="M60.7,68.4v3.8l-16.8,29H30.5l16.8-29H20.7v9.6H9.6V61.4h18.8V50.8h5.5c3.1,0,5.5,2.5,5.5,5.6v5h14.2
		C57.6,61.4,60.7,64.5,60.7,68.4z"/>
	<path class="st0" d="M123.3,95.1v6.1H67.4V87.9h48.9C120.1,87.9,123.3,91.2,123.3,95.1z M115.3,71.1h-40V60.3h33c3.9,0,7,3.1,7,7
		V71.1z"/>
</g>
<g>
	<path d="M60,123.5v3.8l-10.1,37.5H37.6l10-37.5H27.2l-4.5,16.9H10.4l7.4-27.8h35.1C56.8,116.4,60,119.5,60,123.5z"/>
	<path d="M120.4,161.7H73v-44.1h40.4c3.8,0,6.8,3,7,6.7V161.7z M109.3,128.3H84v22.6h25.3V128.3z"/>
</g>
<g>
	<path d="M10.7,12.8h12.2v4.6h-7.5v4.5h7.5v4.5h-7.5v11h-4.6V12.8z"/>
	<path d="M39.9,19.2h4.6v18.1h-4.6v-1.9c-0.9,0.8-1.8,1.5-2.7,1.8c-0.9,0.4-1.9,0.6-2.9,0.6c-2.3,0-4.4-0.9-6.1-2.7
		c-1.7-1.8-2.6-4.1-2.6-6.8c0-2.8,0.8-5.1,2.5-6.9c1.7-1.8,3.7-2.7,6-2.7c1.1,0,2.1,0.2,3.1,0.6c1,0.4,1.8,1,2.6,1.9V19.2z
		 M35.1,22.9c-1.4,0-2.6,0.5-3.5,1.5c-0.9,1-1.4,2.3-1.4,3.8c0,1.6,0.5,2.9,1.4,3.9c0.9,1,2.1,1.5,3.5,1.5c1.4,0,2.6-0.5,3.6-1.5
		c0.9-1,1.4-2.3,1.4-3.9c0-1.6-0.5-2.9-1.4-3.8C37.7,23.4,36.6,22.9,35.1,22.9z"/>
	<path d="M60.2,21.7l-2.8,2.8c-1.1-1.1-2.2-1.7-3.1-1.7c-0.5,0-0.9,0.1-1.2,0.3c-0.3,0.2-0.4,0.5-0.4,0.8c0,0.2,0.1,0.5,0.3,0.7
		c0.2,0.2,0.6,0.5,1.4,0.8l1.7,0.8c1.8,0.9,3,1.8,3.6,2.7c0.7,0.9,1,2,1,3.2c0,1.6-0.6,3-1.8,4c-1.2,1.1-2.8,1.6-4.8,1.6
		c-2.6,0-4.8-1-6.3-3.1l2.8-3.1c0.5,0.6,1.2,1.1,1.9,1.5c0.7,0.4,1.4,0.6,1.9,0.6c0.6,0,1.1-0.1,1.5-0.4c0.4-0.3,0.6-0.6,0.6-1
		c0-0.7-0.7-1.4-2-2.1l-1.5-0.8c-2.9-1.5-4.4-3.3-4.4-5.6c0-1.4,0.6-2.7,1.7-3.7c1.1-1,2.5-1.5,4.2-1.5c1.2,0,2.3,0.3,3.3,0.8
		C58.6,20,59.4,20.7,60.2,21.7z"/>
	<path d="M64.1,12.2h4.5V21c0.9-0.8,1.8-1.3,2.7-1.7c0.9-0.4,1.8-0.6,2.7-0.6c1.8,0,3.3,0.6,4.6,1.9c1.1,1.1,1.6,2.7,1.6,4.8v12
		h-4.5v-8c0-2.1-0.1-3.5-0.3-4.3c-0.2-0.7-0.5-1.3-1-1.7c-0.5-0.4-1.1-0.6-1.8-0.6c-0.9,0-1.7,0.3-2.4,0.9c-0.7,0.6-1.1,1.4-1.4,2.5
		c-0.1,0.5-0.2,1.8-0.2,3.7v7.3h-4.5V12.2z"/>
	<path d="M86.4,11.7c0.8,0,1.5,0.3,2.1,0.9c0.6,0.6,0.9,1.3,0.9,2.1c0,0.8-0.3,1.5-0.8,2.1c-0.6,0.6-1.2,0.9-2,0.9
		c-0.8,0-1.5-0.3-2.1-0.9c-0.6-0.6-0.9-1.3-0.9-2.1c0-0.8,0.3-1.5,0.8-2.1C84.9,12,85.6,11.7,86.4,11.7z M84.1,19.2h4.6v18.1h-4.6
		V19.2z"/>
	<path d="M101.3,18.7c1.7,0,3.3,0.4,4.8,1.3c1.5,0.9,2.7,2,3.5,3.5c0.8,1.5,1.3,3.1,1.3,4.8c0,1.7-0.4,3.3-1.3,4.8
		c-0.9,1.5-2,2.7-3.5,3.5c-1.5,0.8-3.1,1.3-4.9,1.3c-2.6,0-4.8-0.9-6.7-2.8c-1.8-1.9-2.8-4.1-2.8-6.7c0-2.8,1-5.2,3.1-7.1
		C96.8,19.5,98.9,18.7,101.3,18.7z M101.4,23c-1.4,0-2.6,0.5-3.5,1.5c-0.9,1-1.4,2.2-1.4,3.8c0,1.6,0.5,2.9,1.4,3.8
		c0.9,1,2.1,1.5,3.5,1.5s2.6-0.5,3.6-1.5c0.9-1,1.4-2.3,1.4-3.8c0-1.6-0.5-2.8-1.4-3.8C104,23.5,102.8,23,101.4,23z"/>
	<path d="M114.6,19.2h4.6V21c1-0.9,2-1.5,2.8-1.8c0.8-0.3,1.7-0.5,2.6-0.5c1.8,0,3.3,0.6,4.6,1.9c1.1,1.1,1.6,2.6,1.6,4.7v12h-4.5
		v-7.9c0-2.2-0.1-3.6-0.3-4.3s-0.5-1.3-1-1.6c-0.5-0.4-1.1-0.6-1.8-0.6c-0.9,0-1.7,0.3-2.4,0.9c-0.7,0.6-1.1,1.5-1.4,2.6
		c-0.1,0.6-0.2,1.8-0.2,3.7v7.3h-4.6V19.2z"/>
	<path d="M163.6,17.1l-3.3,3.1c-2.2-2.3-4.7-3.5-7.5-3.5c-2.3,0-4.3,0.8-5.9,2.4c-1.6,1.6-2.4,3.6-2.4,5.9c0,1.6,0.4,3.1,1.1,4.4
		c0.7,1.3,1.7,2.3,3,3c1.3,0.7,2.7,1.1,4.3,1.1c1.4,0,2.6-0.3,3.7-0.8s2.4-1.4,3.7-2.8l3.2,3.3c-1.8,1.8-3.5,3-5.1,3.7
		c-1.6,0.7-3.5,1-5.5,1c-3.8,0-6.9-1.2-9.4-3.6c-2.4-2.4-3.6-5.5-3.6-9.3c0-2.4,0.6-4.6,1.7-6.5c1.1-1.9,2.7-3.4,4.8-4.6
		s4.3-1.7,6.7-1.7c2,0,4,0.4,5.8,1.3C160.7,14.3,162.3,15.5,163.6,17.1z"/>
	<path d="M185.4,29.6h-14.6c0.2,1.3,0.8,2.3,1.7,3.1c0.9,0.8,2.1,1.1,3.5,1.1c1.7,0,3.2-0.6,4.4-1.8l3.8,1.8c-1,1.4-2.1,2.4-3.4,3
		s-2.9,1-4.8,1c-2.8,0-5.2-0.9-7-2.7c-1.8-1.8-2.7-4-2.7-6.7c0-2.8,0.9-5.1,2.7-6.9c1.8-1.8,4-2.7,6.7-2.7c2.9,0,5.2,0.9,7,2.7
		c1.8,1.8,2.7,4.2,2.7,7.2L185.4,29.6z M180.8,26c-0.3-1-0.9-1.8-1.8-2.5c-0.9-0.6-1.9-1-3.1-1c-1.3,0-2.4,0.4-3.3,1.1
		c-0.6,0.4-1.2,1.2-1.7,2.4H180.8z"/>
	<path d="M189.1,19.2h4.6V21c1-0.9,2-1.5,2.8-1.8c0.8-0.3,1.7-0.5,2.6-0.5c1.8,0,3.3,0.6,4.6,1.9c1.1,1.1,1.6,2.6,1.6,4.7v12h-4.5
		v-7.9c0-2.2-0.1-3.6-0.3-4.3s-0.5-1.3-1-1.6c-0.5-0.4-1.1-0.6-1.8-0.6c-0.9,0-1.7,0.3-2.4,0.9c-0.7,0.6-1.1,1.5-1.4,2.6
		c-0.1,0.6-0.2,1.8-0.2,3.7v7.3h-4.6V19.2z"/>
	<path d="M210.1,12.5h4.6v6.7h2.7v3.9h-2.7v14.2h-4.6V23.1h-2.3v-3.9h2.3V12.5z"/>
	<path d="M238,29.6h-14.6c0.2,1.3,0.8,2.3,1.7,3.1c0.9,0.8,2.1,1.1,3.5,1.1c1.7,0,3.2-0.6,4.4-1.8l3.8,1.8c-1,1.4-2.1,2.4-3.4,3
		s-2.9,1-4.8,1c-2.8,0-5.2-0.9-7-2.7c-1.8-1.8-2.7-4-2.7-6.7c0-2.8,0.9-5.1,2.7-6.9c1.8-1.8,4-2.7,6.7-2.7c2.9,0,5.2,0.9,7,2.7
		c1.8,1.8,2.7,4.2,2.7,7.2L238,29.6z M233.4,26c-0.3-1-0.9-1.8-1.8-2.5c-0.9-0.6-1.9-1-3.1-1c-1.3,0-2.4,0.4-3.3,1.1
		c-0.6,0.4-1.2,1.2-1.7,2.4H233.4z"/>
	<path d="M240.6,19.2h3.9v2.3c0.4-0.9,1-1.6,1.7-2.1c0.7-0.5,1.5-0.7,2.3-0.7c0.6,0,1.2,0.2,1.9,0.5l-1.4,3.9
		c-0.5-0.3-1-0.4-1.3-0.4c-0.7,0-1.3,0.4-1.8,1.3c-0.5,0.9-0.7,2.6-0.7,5.1l0,0.9v7.3h-4.5V19.2z"/>
</g>
<g>
	<path class="st1" d="M253.7,137l-22.1-13.7c0.9-2.4,1.6-4.9,2-7.4l23.9,0.9l-23.3-7.1c0-0.2,0-0.4,0-0.6c0-1.6-0.1-3.2-0.3-4.7
		l18.9-12.8l-20,7.1c-0.9-3.5-2.3-6.7-4.1-9.8l0.4-0.3l25.5-17.4l-29.1,10.3l-1.9,0.7c-0.9-0.9-1.8-1.9-2.8-2.7l10.5-20.1l-15,16.5
		c-1.4-0.9-2.8-1.7-4.3-2.4l5.4-22.3l-10.8,20.1c-1.4-0.4-2.8-0.8-4.2-1.1l1.2-30.2L197,69.5c-0.8-0.1-1.6-0.1-2.5-0.1
		c-0.7,0-1.3,0.1-2,0.1l-5.9-24.6l-0.5,25.4c-1.8,0.4-3.6,0.9-5.3,1.6l-7.9-16.4l3.6,18.3c-0.5,0.3-1,0.5-1.5,0.8l-2-2.4l-20.1-23.4
		l13.5,27.8l1.6,3.2c-1.2,1-2.2,2.1-3.3,3.3l-21.6-7.2L161,87.7c-1.2,1.8-2.2,3.8-3.1,5.8L130.3,94l25.4,6.1
		c-0.4,1.7-0.7,3.3-0.9,5.1l-27.7,8l27.7-0.7c0.1,1.7,0.4,3.4,0.8,5.1l-16.1,20.9l18.2-14.1c1,2.3,2.1,4.5,3.5,6.5l-10.5,15.1
		l13.3-11.3c1.3,1.5,2.7,2.9,4.2,4.2l-13.6,26.9l18-23.6c2.7,1.8,5.7,3.3,8.9,4.3l-5,15l9-13.8c2.9,0.7,5.8,1,8.9,1
		c0.1,0,0.2,0,0.4,0l1.1,8.8l1.1-8.9c4-0.3,7.7-1.1,11.3-2.4l7.5,18.1l-2.7-20.3c2.2-1.2,4.3-2.5,6.2-4.1l15.3,11.4L223,136.9
		c2.2-2.3,4.1-4.8,5.8-7.6L253.7,137L253.7,137z"/>
	<path class="st2" d="M225.6,99.3c0,14.1-13.3,25.5-29.8,25.5c-16.4,0-29.8-11.4-29.8-25.5c0-14.1,13.3-25.5,29.8-25.5
		C212.3,73.8,225.6,85.2,225.6,99.3L225.6,99.3z"/>
	<path class="st3" d="M195.9,124.8c12.3,0,22.9-6.4,27.4-15.5c-0.2-1.6-0.4-3.2-0.7-4.7c-1.9-10.6-3.2-8.9-11.2-10.1
		c-9.8-1.4-15.2-10-24.6-11.5c-7.5-1.2-14.9,3.6-19.6,9.8c-0.6,2.1-1,4.2-1,6.5C166.1,113.4,179.4,124.8,195.9,124.8L195.9,124.8z"
		/>
</g>
</svg>
